<?xml version="1.0" encoding="utf-8"?>
<!-- Generator: Adobe Illustrator 25.3.1, SVG Export Plug-In . SVG Version: 6.00 Build 0)  -->
<svg version="1.1" id="Layer_1" xmlns="http://www.w3.org/2000/svg" xmlns:xlink="http://www.w3.org/1999/xlink" x="0px" y="0px"
	 viewBox="0 0 841.9 595.3" style="enable-background:new 0 0 841.9 595.3;" xml:space="preserve">
<style type="text/css">
	.st0{fill:#EF292A;}
	.st1{fill:#E94435;}
	.st2{fill:#F8BB15;}
	.st3{fill:#FABC05;}
	.st4{fill:#32B677;}
	.st5{fill:#31B779;}
	.st6{fill:#1A72F7;}
</style>
<g>
	<path class="st0" d="M473.2,546.3C473.2,546.3,473.2,546.3,473.2,546.3l-139.3-7c-0.3,0-0.6-0.1-0.8-0.3l-110.7-77.1
		c-0.3-0.2-0.5-0.4-0.6-0.8l-45.2-120.8c-0.1-0.2-0.1-0.4-0.1-0.6l6.1-131.8c0-0.4,0.1-0.7,0.4-1l99.1-118.3
		c0.2-0.2,0.4-0.4,0.7-0.5l80-30.2c0.1-0.1,0.3-0.1,0.4-0.1l73.1-5.7c0.3,0,0.5,0,0.8,0.1l148.1,62.2c0.3,0.1,0.6,0.4,0.8,0.7
		L656.7,237c0.1,0.2,0.2,0.5,0.2,0.8l2.4,119.4c0,0.3-0.1,0.5-0.2,0.8l-66.4,126.3c-0.2,0.3-0.4,0.5-0.7,0.7L474,546.2
		C473.7,546.3,473.5,546.3,473.2,546.3 M334.5,536.2l138.3,6.9l117.3-60.9l66-125.5l-2.4-118.6l-70.4-120.9L436.1,55.5l-72.5,5.6
		l-79.4,30l-98.5,117.6l-6,130.9l44.9,120L334.5,536.2z"/>
</g>
<path class="st1" d="M366.6,136.3c-0.3,0-0.5-0.1-0.8-0.2l-83.3-45c-0.6-0.3-0.9-1-0.8-1.6c0.1-0.7,0.6-1.2,1.2-1.3L436,52.3
	c0.7-0.2,1.4,0.1,1.7,0.7c0.4,0.6,0.3,1.4-0.2,1.9l-69.8,80.9C367.5,136.1,367.1,136.3,366.6,136.3 M287.8,90.3l78.5,42.4L432,56.5
	L287.8,90.3z"/>
<g>
	<path class="st0" d="M283.3,91.3c-0.7,0-1.3-0.5-1.5-1.1c-0.2-0.8,0.2-1.7,1-2l80-30.2c0.2-0.1,0.3-0.1,0.4-0.1l73.1-5.7
		c0.9-0.1,1.6,0.5,1.7,1.4c0.1,0.8-0.4,1.6-1.2,1.8L283.7,91.2C283.6,91.3,283.4,91.3,283.3,91.3 M363.6,61.1l-56.9,21.5L415.6,57
		L363.6,61.1z"/>
</g>
<g>
	<path class="st0" d="M366.6,136.3c-0.6,0-1.2-0.4-1.4-0.9c-0.3-0.6-0.2-1.3,0.2-1.7l69.7-80.9c0.3-0.3,0.7-0.5,1.1-0.6
		c0.4,0,0.8,0.1,1.2,0.4l86,76c0.5,0.4,0.7,1.1,0.5,1.7c-0.2,0.6-0.8,1-1.5,1.1L366.6,136.3C366.7,136.3,366.6,136.3,366.6,136.3
		 M436.5,56.1L370.2,133l148.1-4.7L436.5,56.1z"/>
</g>
<g>
	<path class="st0" d="M522.4,131.4c-0.4,0-0.8-0.1-1.1-0.4l-86-76c-0.6-0.5-0.7-1.4-0.3-2.1c0.4-0.7,1.3-0.9,2-0.6l148.1,62.2
		c0.6,0.3,1,0.9,1,1.6c-0.1,0.7-0.6,1.3-1.3,1.4l-62.1,13.8C522.6,131.4,522.5,131.4,522.4,131.4 M444.8,59.1l78.1,69l56.3-12.5
		L444.8,59.1z"/>
</g>
<path class="st2" d="M626,238.4c-0.4,0-0.8-0.2-1.2-0.5l-103.6-107c-0.4-0.4-0.5-1-0.4-1.6c0.2-0.6,0.6-1,1.2-1.1l62.1-13.8
	c0.8-0.2,1.6,0.3,1.9,1l41.5,120.7c0.3,0.7,0,1.5-0.7,1.9C626.6,238.3,626.3,238.4,626,238.4 M525.5,130.7l96.6,99.7l-38.7-112.6
	L525.5,130.7z"/>
<path class="st3" d="M655.3,239.4C655.3,239.4,655.3,239.4,655.3,239.4l-29.4-1c-0.7,0-1.2-0.5-1.5-1.1l-41.5-120.7
	c-0.3-0.8,0.1-1.6,0.8-2c0.7-0.3,1.6-0.1,2,0.7L656.7,237c0.3,0.5,0.3,1.1,0,1.6C656.4,239.1,655.9,239.4,655.3,239.4 M627.1,235.2
	l25.3,0.9l-61.2-105.1L627.1,235.2z"/>
<path class="st2" d="M583.1,405.3c-0.3,0-0.7-0.1-0.9-0.3c-0.5-0.4-0.8-1.1-0.6-1.7l42.8-167c0.2-0.7,0.9-1.2,1.6-1.2
	c0.7,0,1.4,0.5,1.6,1.2l31.8,120.4c0.2,0.7-0.1,1.4-0.7,1.8L584,405.1C583.7,405.3,583.4,405.3,583.1,405.3 M626,243.1l-40.3,157.1
	l70.2-43.8L626,243.1z"/>
<path class="st3" d="M657.7,358.8c-0.7,0-1.4-0.5-1.6-1.2l-31.8-120.4c-0.1-0.5,0-1,0.3-1.4c0.3-0.4,0.8-0.6,1.3-0.6l29.3,1
	c0.9,0,1.5,0.7,1.6,1.6l2.4,118.9c0.1,0.2,0.1,0.3,0.1,0.5C659.4,358,658.6,358.8,657.7,358.8L657.7,358.8z M628.1,238.4l27.8,105.3
	l-2.1-104.4L628.1,238.4z"/>
<path class="st3" d="M591.3,485c-0.1,0-0.2,0-0.3,0c-0.7-0.1-1.2-0.7-1.3-1.4l-8.2-79.7c-0.1-0.6,0.2-1.2,0.7-1.5l74.6-46.6
	c0.6-0.4,1.4-0.3,1.9,0.2c0.5,0.5,0.7,1.3,0.3,1.9l-66.4,126.3C592.5,484.7,591.9,485,591.3,485 M584.8,404.6l7.6,73.4l61.2-116.4
	L584.8,404.6z"/>
<g>
	<path class="st4" d="M464.2,526.2c-0.5,0-1.1-0.3-1.4-0.8c-0.4-0.6-0.3-1.4,0.2-2L582,402.6c0.4-0.4,1.1-0.6,1.7-0.4
		c0.6,0.2,1,0.7,1.1,1.4l8.2,79.7c0.1,0.8-0.4,1.5-1.1,1.7l-127.1,41.1C464.6,526.2,464.4,526.2,464.2,526.2 M581.9,407.3L470,521
		l119.6-38.7L581.9,407.3z"/>
</g>
<g>
	<path class="st4" d="M473.2,546.3c-0.2,0-0.4,0-0.5-0.1c-0.4-0.1-0.8-0.5-0.9-0.9l-9-20.2c-0.2-0.4-0.2-0.9,0-1.3
		c0.2-0.4,0.5-0.7,1-0.9l127.1-41.1c0.8-0.3,1.6,0.1,2,0.9c0.3,0.8,0,1.7-0.7,2L474,546.2C473.7,546.3,473.5,546.3,473.2,546.3
		 M466.4,525.6l7.6,17l99.4-51.6L466.4,525.6z"/>
</g>
<g>
	<path class="st4" d="M473.2,546.3C473.2,546.3,473.2,546.3,473.2,546.3l-139.3-7c-0.8,0-1.5-0.7-1.5-1.6c0-0.8,0.6-1.6,1.4-1.6
		L464.1,523c0.7-0.1,1.3,0.3,1.6,0.9l9,20.2c0.2,0.5,0.2,1.1-0.1,1.6C474.3,546.1,473.8,546.3,473.2,546.3 M355.3,537.2l115.4,5.8
		l-7.5-16.7L355.3,537.2z"/>
</g>
<g>
	<path class="st4" d="M334,539.4c-0.6,0-1.2-0.3-1.4-0.9l-35.7-68.9c-0.3-0.6-0.2-1.3,0.2-1.8c0.4-0.5,1.1-0.7,1.7-0.5l166,55.7
		c0.7,0.2,1.2,0.9,1.1,1.7c-0.1,0.8-0.7,1.3-1.4,1.4l-130.3,13.2C334.1,539.4,334,539.4,334,539.4 M301.5,471.7l33.4,64.4
		l121.8-12.3L301.5,471.7z"/>
</g>
<g>
	<path class="st4" d="M334,539.4c-0.3,0-0.6-0.1-0.9-0.3L222.4,462c-0.6-0.4-0.8-1.2-0.6-1.9c0.3-0.7,0.9-1.1,1.7-1l74.9,8.2
		c0.5,0.1,1,0.4,1.2,0.9l35.7,68.9c0.3,0.7,0.2,1.5-0.4,1.9C334.7,539.3,334.4,539.4,334,539.4 M229.4,462.9l100.2,69.8l-32.3-62.4
		L229.4,462.9z"/>
</g>
<g>
	<path class="st4" d="M298.3,470.5c-0.1,0-0.1,0-0.2,0l-74.9-8.2c-0.6-0.1-1.2-0.5-1.4-1.2l-35.7-123.5c-0.2-0.7,0.1-1.5,0.8-1.9
		c0.7-0.4,1.5-0.2,2,0.4l110.7,131.8c0.4,0.5,0.5,1.2,0.2,1.8C299.4,470.2,298.9,470.5,298.3,470.5 M224.6,459.2l69.9,7.7
		L191.2,343.9L224.6,459.2z"/>
</g>
<g>
	<path class="st4" d="M223.3,462.2c-0.7,0-1.3-0.4-1.5-1l-45.2-120.8c-0.2-0.4-0.1-0.9,0.1-1.3c0.2-0.4,0.6-0.7,1-0.8l9.5-2.7
		c0.8-0.2,1.7,0.2,2,1.1l35.6,123.1c0.2,0.3,0.2,0.5,0.2,0.9C225,461.5,224.3,462.2,223.3,462.2
		C223.4,462.2,223.3,462.2,223.3,462.2 M180.2,340.9l29.9,80l-23.7-81.8L180.2,340.9z"/>
</g>
<g>
	<path class="st5" d="M298.3,470.5c-0.5,0-0.9-0.2-1.2-0.6L186.4,338.1c-0.4-0.4-0.5-1-0.3-1.5c0.2-0.5,0.6-0.9,1.1-1.1L310,303.1
		c0.5-0.1,1,0,1.4,0.3c0.4,0.3,0.6,0.8,0.6,1.4L299.9,469c-0.1,0.6-0.5,1.2-1.1,1.4C298.6,470.5,298.4,470.5,298.3,470.5 M190.5,338
		L297,464.8l11.7-158.1L190.5,338z"/>
</g>
<g>
	<path class="st0" d="M187.6,338.7c-0.1,0-0.2,0-0.2,0c-0.8-0.1-1.4-0.8-1.4-1.5l-3.4-129.1c0-0.7,0.5-1.4,1.2-1.6l49.9-12.8
		c0.6-0.1,1.2,0,1.6,0.5c0.4,0.4,0.5,1,0.4,1.6l-46.5,141.9C188.9,338.2,188.3,338.7,187.6,338.7 M185.8,209.3l3.1,118.5l42.7-130.3
		L185.8,209.3z"/>
</g>
<g>
	<path class="st0" d="M178.1,341.4c-0.4,0-0.7-0.1-1-0.3c-0.4-0.3-0.6-0.8-0.6-1.3l6.1-131.8c0-0.9,0.8-1.5,1.6-1.5
		c0.9,0,1.6,0.7,1.6,1.6l3.4,129.1c0,0.7-0.5,1.4-1.2,1.6l-9.5,2.7C178.4,341.4,178.3,341.4,178.1,341.4 M183.7,252.3l-3.9,85.4
		l6.1-1.8L183.7,252.3z"/>
</g>
<g>
	<path class="st0" d="M234.1,196.8c-0.4,0-0.8-0.2-1.1-0.5c-0.5-0.5-0.6-1.2-0.3-1.8L281.9,89c0.2-0.4,0.5-0.7,0.9-0.8
		c0.4-0.1,0.9-0.1,1.3,0.1l83.3,45c0.5,0.3,0.9,0.9,0.8,1.5c0,0.6-0.4,1.2-0.9,1.4l-132.6,60.5C234.5,196.7,234.3,196.8,234.1,196.8
		 M284,91.9l-46.7,100L363,134.6L284,91.9z"/>
</g>
<g>
	<path class="st0" d="M310.4,306.2c-0.5,0-1-0.2-1.3-0.7l-76.4-109.5c-0.3-0.4-0.4-0.9-0.2-1.3c0.1-0.5,0.4-0.8,0.9-1L366,133.2
		c0.6-0.3,1.3-0.2,1.7,0.3c0.5,0.4,0.7,1.1,0.4,1.7L312,305.1c-0.2,0.6-0.7,1-1.3,1.1C310.6,306.2,310.5,306.2,310.4,306.2
		 M236.5,195.8l73.5,105.2l54-163.4L236.5,195.8z"/>
</g>
<g>
	<path class="st6" d="M310.4,306.2c-0.4,0-0.9-0.2-1.2-0.5c-0.4-0.4-0.5-1-0.3-1.6l56.2-169.9c0.2-0.5,0.6-0.9,1.2-1.1
		c0.6-0.1,1.1,0,1.5,0.4L495,263.4c0.4,0.4,0.6,1,0.4,1.6c-0.2,0.6-0.6,1-1.2,1.1l-183.4,40.1C310.7,306.2,310.5,306.2,310.4,306.2
		 M367.3,137.7l-54.5,164.8l177.8-38.9L367.3,137.7z"/>
</g>
<g>
	<path class="st5" d="M298.3,470.5c-0.3,0-0.7-0.1-1-0.3c-0.4-0.3-0.7-0.9-0.6-1.4l12.2-164.2c0-0.6,0.4-1.2,1-1.4
		c0.6-0.2,1.2-0.1,1.7,0.3l120.9,115.7c0.4,0.4,0.6,0.9,0.5,1.5c-0.1,0.5-0.5,1-1,1.2l-133.1,48.6
		C298.6,470.5,298.5,470.5,298.3,470.5 M311.8,308.1l-11.7,158.4l128.3-46.8L311.8,308.1z"/>
</g>
<g>
	<path class="st4" d="M464.2,526.2c-0.2,0-0.3,0-0.5-0.1l-166-55.7c-0.6-0.2-1.1-0.8-1.1-1.5c0-0.7,0.4-1.3,1.1-1.5l133.1-48.6
		c0.4-0.2,0.9-0.1,1.3,0.1c0.4,0.2,0.7,0.5,0.8,1l32.8,103.9c0.2,0.3,0.3,0.6,0.3,0.9C465.9,525.5,465.2,526.2,464.2,526.2
		C464.3,526.2,464.3,526.2,464.2,526.2 M303.1,468.8l158.7,53.2l-31.4-99.7L303.1,468.8z"/>
</g>
<g>
	<path class="st4" d="M464.2,526.2c-0.1,0-0.3,0-0.4,0c-0.5-0.1-1-0.5-1.2-1.1l-32.9-104.3c-0.1-0.5-0.1-1,0.2-1.4
		c0.3-0.4,0.7-0.7,1.2-0.7L583,402.1c0.7-0.1,1.3,0.3,1.6,0.9c0.3,0.6,0.2,1.3-0.3,1.8L465.4,525.7
		C465.1,526,464.7,526.2,464.2,526.2 M433.5,421.7l31.5,99.9l113.9-115.7L433.5,421.7z"/>
</g>
<g>
	<path class="st6" d="M431.4,421.9c-0.4,0-0.8-0.2-1.1-0.4L309.3,305.8c-0.4-0.4-0.6-1-0.4-1.6c0.2-0.6,0.6-1,1.2-1.1L493.5,263
		c0.6-0.1,1.2,0.1,1.6,0.5c0.4,0.5,0.5,1.1,0.3,1.6l-62.4,155.7c-0.2,0.5-0.6,0.9-1.1,1C431.6,421.9,431.5,421.9,431.4,421.9
		 M313.7,305.6l117,111.9l60.4-150.7L313.7,305.6z"/>
</g>
<g>
	<path class="st6" d="M431.4,421.9c-0.5,0-1-0.2-1.3-0.6c-0.3-0.4-0.4-1-0.2-1.6L492.3,264c0.2-0.6,0.7-0.9,1.3-1
		c0.6-0.1,1.2,0.2,1.5,0.7l89.3,139.2c0.3,0.5,0.3,1.1,0.1,1.6c-0.2,0.5-0.7,0.8-1.3,0.9l-151.8,16.6
		C431.5,421.9,431.4,421.9,431.4,421.9 M494.1,268.1l-60.3,150.4l146.5-16L494.1,268.1z"/>
</g>
<g>
	<path class="st6" d="M583.1,405.3c-0.5,0-1.1-0.3-1.4-0.7l-89.3-139.2c-0.3-0.4-0.3-1-0.1-1.5c0.2-0.5,0.6-0.8,1.2-0.9l132.2-27.8
		c0.5-0.1,1.1,0.1,1.5,0.5c0.4,0.4,0.5,1,0.4,1.5l-42.8,167c-0.2,0.6-0.7,1.1-1.3,1.2C583.3,405.3,583.2,405.3,583.1,405.3
		 M496.4,265.7l86.1,134.1l41.3-160.9L496.4,265.7z"/>
</g>
<g>
	<path class="st6" d="M493.8,266.2c-0.4,0-0.8-0.2-1.1-0.5c-0.4-0.4-0.5-0.9-0.4-1.5l28.6-134.8c0.1-0.6,0.6-1,1.1-1.2
		c0.6-0.2,1.2,0,1.6,0.4l103.6,107c0.4,0.4,0.6,1,0.4,1.6c-0.2,0.6-0.6,1-1.2,1.1l-132.2,27.8C494,266.2,493.9,266.2,493.8,266.2
		 M523.3,133.1l-27.4,129.4l126.9-26.7L523.3,133.1z"/>
</g>
<g>
	<path class="st6" d="M493.8,266.2c-0.4,0-0.8-0.2-1.2-0.5L365.5,135.8c-0.4-0.5-0.6-1.1-0.3-1.7c0.2-0.6,0.8-1,1.4-1l155.7-4.9
		c0.5-0.1,1,0.2,1.3,0.6c0.3,0.4,0.4,0.9,0.3,1.4l-28.6,134.8c-0.1,0.6-0.6,1-1.1,1.2C494.1,266.1,494,266.2,493.8,266.2
		 M370.3,136.2l122.5,125.1l27.5-129.8L370.3,136.2z"/>
</g>
<path class="st6" d="M509.7,273.9c-5.1,8.8-16.4,11.7-25.2,6.6c-8.8-5.1-11.7-16.4-6.6-25.2c5.1-8.8,16.4-11.7,25.2-6.6
	C511.9,253.8,514.8,265.1,509.7,273.9"/>
<path class="st6" d="M445.9,428.8c-4.7,8-15,10.7-23.1,6c-8-4.7-10.7-15-6-23.1c4.7-8,15-10.7,23.1-6
	C447.9,410.4,450.6,420.8,445.9,428.8"/>
<path class="st0" d="M381.2,143.2c-4.7,8-15,10.7-23.1,6c-8-4.7-10.7-15-6-23.1c4.7-8,15-10.7,23.1-6
	C383.2,124.9,385.9,135.2,381.2,143.2"/>
<path class="st3" d="M535.6,137.5c-4.3,7.3-13.7,9.8-21,5.5c-7.3-4.3-9.8-13.7-5.5-21c4.3-7.3,13.7-9.8,21-5.5
	C537.4,120.8,539.9,130.2,535.6,137.5"/>
<path class="st0" d="M448.3,60.8c-3.8,6.6-12.3,8.8-18.9,4.9c-6.6-3.8-8.8-12.3-4.9-18.9c3.8-6.6,12.3-8.8,18.9-4.9
	C449.9,45.8,452.1,54.2,448.3,60.8"/>
<path class="st0" d="M295.2,96.7c-3.9,6.6-12.3,8.8-18.9,4.9c-6.6-3.8-8.8-12.3-4.9-18.9c3.8-6.6,12.3-8.8,18.9-4.9
	C296.8,81.6,299.1,90.1,295.2,96.7"/>
<path class="st3" d="M596.3,123c-3.8,6.6-12.3,8.8-18.9,4.9c-6.6-3.8-8.8-12.3-4.9-18.9c3.8-6.6,12.3-8.8,18.9-4.9
	C598,108,600.2,116.4,596.3,123"/>
<path class="st3" d="M667.2,244.7c-3.8,6.6-12.3,8.8-18.9,4.9c-6.6-3.9-8.8-12.3-4.9-18.9c3.9-6.6,12.3-8.8,18.9-4.9
	C668.8,229.7,671,238.2,667.2,244.7"/>
<path class="st5" d="M483.8,550.9c-3.4,5.8-10.9,7.8-16.8,4.4c-5.8-3.4-7.8-10.9-4.4-16.8c3.4-5.8,10.9-7.8,16.8-4.4
	C485.3,537.6,487.2,545.1,483.8,550.9"/>
<path class="st5" d="M601.9,489.6c-3.4,5.8-10.9,7.8-16.8,4.4c-5.8-3.4-7.8-10.9-4.4-16.8c3.4-5.8,10.9-7.8,16.8-4.4
	C603.4,476.3,605.3,483.8,601.9,489.6"/>
<path class="st3" d="M670,363.6c-3.4,5.8-10.9,7.8-16.8,4.4c-5.8-3.4-7.8-10.9-4.4-16.8c3.4-5.8,10.9-7.8,16.8-4.4
	C671.4,350.2,673.4,357.7,670,363.6"/>
<path class="st0" d="M378.8,63.6c-3.4,5.8-10.9,7.8-16.8,4.4c-5.8-3.4-7.8-10.9-4.4-16.8c3.4-5.8,10.9-7.8,16.8-4.4
	C380.3,50.2,382.3,57.7,378.8,63.6"/>
<path class="st5" d="M233.9,466.8c-3.4,5.8-10.9,7.8-16.8,4.4c-5.8-3.4-7.8-10.9-4.4-16.8c3.4-5.8,10.9-7.8,16.8-4.4
	C235.4,453.5,237.3,461,233.9,466.8"/>
<path class="st5" d="M344.6,544c-3.4,5.8-10.9,7.8-16.8,4.4s-7.8-10.9-4.4-16.8c3.4-5.8,10.9-7.8,16.8-4.4
	C346,530.6,348,538.1,344.6,544"/>
<path class="st3" d="M639.2,244.5c-4.3,7.3-13.7,9.8-21,5.5c-7.3-4.3-9.8-13.7-5.5-21c4.3-7.3,13.7-9.8,21-5.5
	C641,227.8,643.5,237.2,639.2,244.5"/>
<path class="st5" d="M596.4,411.5c-4.3,7.3-13.7,9.8-21,5.5c-7.3-4.3-9.8-13.7-5.5-21c4.3-7.3,13.7-9.8,21-5.5
	C598.2,394.8,600.6,404.2,596.4,411.5"/>
<path class="st5" d="M476.2,531.5c-3.8,6.6-12.3,8.8-18.9,4.9c-6.6-3.8-8.8-12.3-4.9-18.9c3.8-6.6,12.3-8.8,18.9-4.9
	C477.8,516.5,480,525,476.2,531.5"/>
<path class="st0" d="M246,202.1c-3.8,6.6-12.3,8.8-18.9,4.9c-6.6-3.8-8.8-12.3-4.9-18.9c3.8-6.6,12.3-8.8,18.9-4.9
	S249.8,195.6,246,202.1"/>
<path class="st0" d="M196.1,215c-3.8,6.6-12.3,8.8-18.9,4.9c-6.6-3.9-8.8-12.3-4.9-18.9s12.3-8.8,18.9-4.9
	C197.7,200,199.9,208.4,196.1,215"/>
<path class="st5" d="M310.2,475.8c-3.8,6.6-12.3,8.8-18.9,4.9c-6.6-3.8-8.8-12.3-4.9-18.9c3.8-6.6,12.3-8.8,18.9-4.9
	C311.8,460.8,314,469.3,310.2,475.8"/>
<path class="st5" d="M199.5,344.1c-3.8,6.6-12.3,8.8-18.9,4.9c-6.6-3.9-8.8-12.3-4.9-18.9c3.9-6.6,12.3-8.8,18.9-4.9
	C201.1,329,203.4,337.5,199.5,344.1"/>
<path class="st6" d="M325,313.2c-4.7,8-15,10.7-23.1,6c-8-4.7-10.7-15-6-23.1c4.7-8,15-10.7,23.1-6C327,294.8,329.7,305.1,325,313.2
	"/>
</svg>
